<?xml version="1.0" standalone="no"?><!DOCTYPE svg PUBLIC "-//W3C//DTD SVG 1.1//EN"
    "http://www.w3.org/Graphics/SVG/1.1/DTD/svg11.dtd">
<svg class="icon" height="24" p-id="8680" t="1592445927400" version="1.1" viewBox="0 0 1024 1024"
    width="24" xmlns="http://www.w3.org/2000/svg">
    <defs>
        <style type="text/css"></style>
    </defs>
    <path
        d="M420.992 577.856a67.008 67.008 0 1 0 134.08 0 67.008 67.008 0 0 0-134.08 0M665.536 577.856a67.008 67.008 0 1 0 134.08 0 67.008 67.008 0 0 0-134.08 0M688.128 288.64c24.32 0 45.44-19.712 45.44-44.16V44.16c0-24.384-21.12-44.16-45.44-44.16a44.16 44.16 0 0 0-44.032 44.16v200.448c0 24.384 19.712 44.16 44.096 44.16l-0.064-0.128z m-400.32 0c24.32 0 45.44-19.712 45.44-44.16V44.16c0-24.384-21.12-44.16-45.44-44.16a44.16 44.16 0 0 0-44.16 44.16v200.448c0 24.384 19.84 44.16 44.16 44.16V288.64zM176.064 577.856a67.008 67.008 0 1 0 134.08 0 67.008 67.008 0 0 0-134.08 0M174.912 822.848a67.008 67.008 0 1 0 134.016 0 67.008 67.008 0 0 0-134.016 0M420.992 822.848a67.008 67.008 0 1 0 134.08 0 67.008 67.008 0 0 0-134.08 0"
        fill="#ffffff" p-id="8681"></path>
    <path
        d="M911.104 909.568a47.36 47.36 0 0 1-46.72 46.72H112.768a47.36 47.36 0 0 1-46.72-46.72V444.672h845.056v464.896z m-49.856-798.464h-54.336c-1.6-0.32-3.136-1.024-4.864-1.024a34.048 34.048 0 0 0 0 68.16c1.728 0 3.136-0.64 4.672-0.896h57.664a47.36 47.36 0 0 1 46.72 46.72v154.24H66.112v-154.24a47.36 47.36 0 0 1 46.72-46.72h51.648c1.6 0.256 2.944 0.896 4.608 0.896a34.048 34.048 0 0 0 0-68.16c-1.664 0-3.072 0.64-4.736 1.024h-47.744A117.12 117.12 0 0 0 0 227.968v678.144c0 64.256 50.56 116.864 114.816 116.864h746.496a117.12 117.12 0 0 0 116.736-116.864V228.032a117.12 117.12 0 0 0-116.736-116.864l-0.064-0.064z"
        fill="#ffffff" p-id="8682"></path>
    <path
        d="M412.16 178.304c0.896 0 1.792-0.512 2.752-0.64h149.888c0.896 0.128 1.792 0.64 2.752 0.64 0.96 0 1.856-0.512 2.816-0.64h3.584v-0.64a33.6 33.6 0 0 0 27.712-32.832 33.6 33.6 0 0 0-27.712-32.768v-0.32h-1.6c-1.664-0.32-3.072-1.024-4.8-1.024-1.728 0-3.2 0.64-4.8 1.024h-145.92c-1.6-0.32-3.008-1.024-4.736-1.024a34.048 34.048 0 0 0 0 68.16z"
        fill="#ffffff" p-id="8683"></path>
</svg>