<?xml version="1.0" standalone="no"?><!DOCTYPE svg PUBLIC "-//W3C//DTD SVG 1.1//EN"
    "http://www.w3.org/Graphics/SVG/1.1/DTD/svg11.dtd">
<svg class="icon" height="24" p-id="2006" t="1592446134129" version="1.1" viewBox="0 0 1090 1024"
    width="25.546875" xmlns="http://www.w3.org/2000/svg">
    <defs>
        <style type="text/css"></style>
    </defs>
    <path
        d="M902.936774 74.322581a113.135484 113.135484 0 0 1 112.805161 112.805161v649.744516a113.135484 113.135484 0 0 1-112.805161 112.805161H187.127742a113.135484 113.135484 0 0 1-112.805161-112.805161V187.127742a113.135484 113.135484 0 0 1 112.805161-112.805161h715.809032m0-74.322581H187.127742A187.127742 187.127742 0 0 0 0 187.127742v649.744516A187.127742 187.127742 0 0 0 187.127742 1024h715.809032A187.127742 187.127742 0 0 0 1090.064516 836.872258V187.127742A187.127742 187.127742 0 0 0 902.936774 0z"
        fill="#ffffff" p-id="2007"></path>
    <path
        d="M330.322581 457.661935l-117.76-100.748387a14.864516 14.864516 0 0 1-1.486452-21.140645l23.452903-27.416774a15.029677 15.029677 0 0 1 21.140645-1.651613l68.872258 59.127742a15.029677 15.029677 0 0 0 20.810323-1.32129l123.705807-136.258065a15.029677 15.029677 0 0 1 21.140645-0.990968l26.756129 24.443871a14.699355 14.699355 0 0 1 0.990967 20.975484l-166.812903 183.659355a14.699355 14.699355 0 0 1-20.810322 1.32129z"
        fill="#ffffff" p-id="2008"></path>
    <path
        d="M338.580645 627.612903a57.806452 57.806452 0 1 1-57.806451 57.806452 57.806452 57.806452 0 0 1 57.806451-57.806452m0-66.064516a123.870968 123.870968 0 1 0 123.870968 123.870968 123.870968 123.870968 0 0 0-123.870968-123.870968z"
        fill="#ffffff" p-id="2009"></path>
    <path
        d="M594.580645 315.127742m14.864516 0l267.561291 0q14.864516 0 14.864516 14.864516l0 44.593548q0 14.864516-14.864516 14.864517l-267.561291 0q-14.864516 0-14.864516-14.864517l0-44.593548q0-14.864516 14.864516-14.864516Z"
        fill="#ffffff" p-id="2010"></path>
    <path
        d="M594.580645 656.516129m14.864516 0l267.561291 0q14.864516 0 14.864516 14.864516l0 44.593549q0 14.864516-14.864516 14.864516l-267.561291 0q-14.864516 0-14.864516-14.864516l0-44.593549q0-14.864516 14.864516-14.864516Z"
        fill="#ffffff" p-id="2011"></path>
</svg>