<?xml version="1.0" encoding="utf-8"?>
<!-- Generator: Adobe Illustrator 23.0.0, SVG Export Plug-In . SVG Version: 6.00 Build 0)  -->
<svg version="1.1" id="图层_1" xmlns="http://www.w3.org/2000/svg" xmlns:xlink="http://www.w3.org/1999/xlink" x="0px" y="0px"
	 viewBox="0 0 24 24" style="enable-background:new 0 0 24 24;" xml:space="preserve">
<style type="text/css">
	.st0{fill:#FFDE3A;}
</style>
<path d="M12,0C5.4,0,0,5.4,0,12s5.4,12,12,12s12-5.4,12-12S18.6,0,12,0z M17.5,12.9h-4.6v4.6c0,0.5-0.4,0.9-0.9,0.9
	s-0.9-0.4-0.9-0.9v-4.6H6.5c-0.5,0-0.9-0.4-0.9-0.9s0.4-0.9,0.9-0.9h4.6V6.5c0-0.5,0.4-0.9,0.9-0.9s0.9,0.4,0.9,0.9v4.6h4.6
	c0.5,0,0.9,0.4,0.9,0.9S18,12.9,17.5,12.9z"/>
<path class="st0" d="M18.5,12c0,0.5-0.4,0.9-0.9,0.9h-4.6v4.6c0,0.5-0.4,0.9-0.9,0.9s-0.9-0.4-0.9-0.9v-4.6H6.5
	c-0.5,0-0.9-0.4-0.9-0.9s0.4-0.9,0.9-0.9h4.6V6.5c0-0.5,0.4-0.9,0.9-0.9s0.9,0.4,0.9,0.9v4.6h4.6C18,11.1,18.5,11.5,18.5,12z"/>
</svg>
