<?xml version="1.0" standalone="no"?><!DOCTYPE svg PUBLIC "-//W3C//DTD SVG 1.1//EN" "http://www.w3.org/Graphics/SVG/1.1/DTD/svg11.dtd"><svg t="1588229468628" class="icon" viewBox="0 0 1024 1024" version="1.1" xmlns="http://www.w3.org/2000/svg" p-id="8025" xmlns:xlink="http://www.w3.org/1999/xlink" width="24" height="24"><defs><style type="text/css"></style></defs><path d="M512 0c282.7776 0 512 229.2224 512 512s-229.2224 512-512 512S0 794.7776 0 512 229.2224 0 512 0z m0 51.2a460.8 460.8 0 1 0 0 921.6 460.8 460.8 0 0 0 0-921.6z" fill="#2B2B2B" p-id="8026"></path><path d="M773.12 339.456a25.6 25.6 0 0 1 37.5296 34.4576l-3.072 3.4304-334.6432 304.3328a25.6 25.6 0 0 1-32.6656 1.536l-3.3792-3.1232-174.08-189.0304a25.6 25.6 0 0 1 34.2016-37.7856l3.4304 3.072L457.216 626.688 773.12 339.456z" fill="#2B2B2B" p-id="8027"></path></svg>