<?xml version="1.0" standalone="no"?><!DOCTYPE svg PUBLIC "-//W3C//DTD SVG 1.1//EN" "http://www.w3.org/Graphics/SVG/1.1/DTD/svg11.dtd"><svg t="1588051689385" class="icon" viewBox="0 0 1024 1024" version="1.1" xmlns="http://www.w3.org/2000/svg" p-id="14431" xmlns:xlink="http://www.w3.org/1999/xlink" width="48" height="48"><defs><style type="text/css"></style></defs><path d="M539.546537 16.423345L413.127185 16.637252l0.499118 291.555966c0 24.337924-34.011298 73.916936-87.321808 96.234621l-41.284153 17.255208 25.431228 440.293002a34.74809 34.74809 0 0 1-9.982351 24.385459 36.792095 36.792095 0 0 1-26.524534 11.194494 38.028006 38.028006 0 0 1-38.028006-38.028006l27.736677-438.296532-43.470764-16.637252c-54.380048-20.749031-90.459118-71.516418-90.459118-95.973179l-0.998235-291.864943-126.419351 0.427815 1.069537 291.674803c0 42.781506 19.014003 88.842928 53.595721 129.604196a299.304172 299.304172 0 0 0 74.986473 63.31663l-22.412756 353.803057v3.99294a164.613729 164.613729 0 0 0 164.42359 164.42359 162.141909 162.141909 0 0 0 117.126257-49.460175 159.812694 159.812694 0 0 0 45.776211-116.674675v-0.974467l-20.630193-357.154276a299.256637 299.256637 0 0 0 72.918701-64.005886c32.870457-40.238383 50.957527-85.563013 50.957528-127.655262z" fill="#FC904A" p-id="14432"></path><path d="M207.989863 13.238499h126.443118V308.26452h-126.443118z" fill="#FC904A" p-id="14433"></path><path d="M1021.670345 0a380.280056 380.280056 0 0 0-380.280056 380.280056v394.540558h237.675035v249.178507h142.605021V0z m-142.605021 632.215593h-95.070014V380.280056a237.461127 237.461127 0 0 1 95.070014-190.021191v442.075565z" fill="#F27638" p-id="14434"></path></svg>