<?xml version="1.0" standalone="no"?><!DOCTYPE svg PUBLIC "-//W3C//DTD SVG 1.1//EN" "http://www.w3.org/Graphics/SVG/1.1/DTD/svg11.dtd"><svg t="1587965888946" class="icon" viewBox="0 0 1024 1024" version="1.1" xmlns="http://www.w3.org/2000/svg" p-id="4081" xmlns:xlink="http://www.w3.org/1999/xlink" width="24" height="24"><defs><style type="text/css"></style></defs><path d="M683.2023 875.392581H226.184997v-0.136525h115.431853v-157.003703c0-1.0922 0.341312-2.047874 0.341313-3.071812A170.178362 170.178362 0 0 1 512.409575 548.89314a170.178362 170.178362 0 0 1 170.519675 166.287401c0 1.023937 0.27305 2.047874 0.27305 3.071812v157.140228z m321.448017-565.008546L896.727337 240.346731V104.709183c0-23.345768-19.113494-42.322738-42.732313-42.322737a42.459262 42.459262 0 0 0-42.66405 42.322737V185.054122L535.823605 6.206425A42.11795 42.11795 0 0 0 511.658688 0.062801a41.913163 41.913163 0 0 0-23.482293 6.143624L19.349683 310.452298a42.049688 42.049688 0 0 0-12.287247 58.569207 43.005362 43.005362 0 0 0 59.047045 12.218984l19.318282-12.560296v519.272685c0 39.728763 36.247377 72.085179 80.822776 72.085178h692.318071c44.575399 0 80.822776-32.356415 80.822777-72.085178V369.15803l18.499132 12.014197a43.005362 43.005362 0 0 0 59.115307-12.287247 41.981425 41.981425 0 0 0-12.355509-58.500945z" fill="#cdcdcd" p-id="4082"></path></svg>