<?xml version="1.0" standalone="no"?><!DOCTYPE svg PUBLIC "-//W3C//DTD SVG 1.1//EN" "http://www.w3.org/Graphics/SVG/1.1/DTD/svg11.dtd"><svg t="1588229433380" class="icon" viewBox="0 0 1024 1024" version="1.1" xmlns="http://www.w3.org/2000/svg" p-id="7140" width="24" height="24" xmlns:xlink="http://www.w3.org/1999/xlink"><defs><style type="text/css"></style></defs><path d="M733.287627 637.476282l-176.910162-102.348027V256a42.648343 42.648343 0 1 0-85.296686 0v298.678327c0 15.821965 19.660016 29.10522 32.45352 36.441495 3.548198 5.3173 13.263265 10.144848 19.20025 13.563112l175.91067 106.675829c20.379651 11.764026 42.478429 4.767579 54.242455-15.612072s0.809589-46.486394-19.620036-58.270409z m0 0" fill="#333333" p-id="7141"></path><path d="M874.076133 149.913872C777.385234 53.252957 648.870495 0 512.099949 0S246.844649 53.252957 150.183735 149.933862 0.259868 375.229454 0.259868 511.96002s53.182993 265.395229 149.853902 362.166088c96.640925 96.600945 225.195643 149.873892 361.88623 149.873892s265.365244-53.272947 362.076133-149.973841c199.528677-199.608636 199.568657-524.423691 0-724.112287z m-47.166048 676.886269C742.802795 910.957404 630.939601 957.323859 512 957.323859s-230.682856-46.346465-314.740171-130.393784S66.936009 630.989576 66.955999 511.96002s46.306485-230.792801 130.383789-314.84012S393.180338 66.726116 512.099949 66.726116s230.712841 46.29649 314.84012 130.383789c173.531878 173.621833 173.531878 456.158357 0 629.680241z m0 0" fill="#333333" p-id="7142"></path></svg>