<?xml version="1.0" standalone="no"?><!DOCTYPE svg PUBLIC "-//W3C//DTD SVG 1.1//EN" "http://www.w3.org/Graphics/SVG/1.1/DTD/svg11.dtd"><svg t="1588089565243" class="icon" viewBox="0 0 1024 1024" version="1.1" xmlns="http://www.w3.org/2000/svg" p-id="3242" xmlns:xlink="http://www.w3.org/1999/xlink" width="10" height="10"><defs><style type="text/css"></style></defs><path d="M505.1 470.3m-391.7 0a391.7 391.7 0 1 0 783.4 0 391.7 391.7 0 1 0-783.4 0Z" fill="#ea453f" p-id="3243"></path><path d="M505.1 890C273.7 890 85.4 701.7 85.4 470.3S273.7 50.6 505.1 50.6s419.7 188.3 419.7 419.7S736.5 890 505.1 890z m0-783.4c-200.6 0-363.7 163.2-363.7 363.7S304.5 834 505.1 834s363.7-163.2 363.7-363.7-163.1-363.7-363.7-363.7z" fill="#ea453f" p-id="3244"></path></svg>