<?xml version="1.0" standalone="no"?><!DOCTYPE svg PUBLIC "-//W3C//DTD SVG 1.1//EN"
    "http://www.w3.org/Graphics/SVG/1.1/DTD/svg11.dtd">
<svg class="icon" height="24" p-id="8809" t="1588345017699" version="1.1" viewBox="0 0 1024 1024"
    width="24" xmlns="http://www.w3.org/2000/svg">
    <defs>
        <style type="text/css"></style>
    </defs>
    <path
        d="M227.84 56.832c-96.768 0-170.496 73.728-170.496 170.496s73.728 170.496 170.496 170.496 170.496-74.24 170.496-170.496c0-96.768-74.24-170.496-170.496-170.496z m0 273.92c-61.952 0-103.424-41.472-103.424-103.424s41.472-103.424 103.424-103.424 103.424 41.472 103.424 103.424c-0.512 62.464-41.472 103.424-103.424 103.424zM796.672 56.832c-96.768 0-170.496 73.728-170.496 170.496s73.728 170.496 170.496 170.496 170.496-74.24 170.496-170.496c0-96.768-74.24-170.496-170.496-170.496z m0 273.92c-61.952 0-103.424-41.472-103.424-103.424s41.472-103.424 103.424-103.424 103.424 41.472 103.424 103.424c-0.512 62.464-41.472 103.424-103.424 103.424z"
        fill="#333333" p-id="8810"></path>
    <path
        d="M56.832 484.352v454.144c0 15.872 12.8 29.184 29.184 29.184h283.136c15.872 0 29.184-12.8 29.184-29.184V484.352c0-15.872-12.8-29.184-29.184-29.184H86.016c-15.872 0-29.184 12.8-29.184 29.184z m246.784 425.984H150.528c-15.872 0-29.184-12.8-29.184-29.184v-339.968c0-15.872 12.8-29.184 29.184-29.184h153.088c15.872 0 29.184 12.8 29.184 29.184v339.968c0 15.872-13.312 29.184-29.184 29.184zM654.848 455.168c-15.872 0-29.184 12.8-29.184 29.184v454.144c0 15.872 12.8 29.184 29.184 29.184h283.136c15.872 0 29.184-12.8 29.184-29.184V484.352c0-15.872-12.8-29.184-29.184-29.184h-283.136z m218.112 455.168h-153.088c-15.872 0-29.184-12.8-29.184-29.184v-339.968c0-15.872 12.8-29.184 29.184-29.184h153.088c15.872 0 29.184 12.8 29.184 29.184v339.968c0 15.872-13.312 29.184-29.184 29.184z"
        fill="#333333" p-id="8811"></path>
</svg>