<?xml version="1.0" standalone="no"?><!DOCTYPE svg PUBLIC "-//W3C//DTD SVG 1.1//EN" "http://www.w3.org/Graphics/SVG/1.1/DTD/svg11.dtd"><svg t="1588080395751" class="icon" viewBox="0 0 1024 1024" version="1.1" xmlns="http://www.w3.org/2000/svg" p-id="38452" width="16" height="16" xmlns:xlink="http://www.w3.org/1999/xlink"><defs><style type="text/css"></style></defs><path d="M514.56 890.88000001A427.52 427.52 0 1 1 942.08 463.36a428.032 428.032 0 0 1-427.52 427.52000001z m0-793.6A366.08 366.08 0 1 0 880.64 463.36 366.5408 366.5408 0 0 0 514.56 97.28000001z" fill="#707070" p-id="38453"></path><path d="M906.24 998.39999999a30.72 30.72 0 0 1-23.9104-11.46879999l-148.48-184.32a30.72 30.72 0 1 1 47.8208-38.5024l148.48 184.32a30.72 30.72 0 0 1-4.6592 43.1616A30.208 30.208 0 0 1 906.24 998.39999999z" fill="#707070" p-id="38454"></path></svg>