<?xml version="1.0" standalone="no"?><!DOCTYPE svg PUBLIC "-//W3C//DTD SVG 1.1//EN" "http://www.w3.org/Graphics/SVG/1.1/DTD/svg11.dtd"><svg t="1588220832624" class="icon" viewBox="0 0 1024 1024" version="1.1" xmlns="http://www.w3.org/2000/svg" p-id="1875" width="20" height="20" xmlns:xlink="http://www.w3.org/1999/xlink"><defs><style type="text/css"></style></defs><path d="M332.800256 518.5024c0 98.816 80.384 179.2 179.2 179.2s179.2-80.384 179.2-179.2-80.384-179.2-179.2-179.2-179.2 80.384-179.2 179.2z m272.5376 1.0752A93.44 93.44 0 0 1 512.000256 612.9152a93.44 93.44 0 0 1-93.3376-93.3376c0-51.456 41.8816-93.2864 93.3376-93.2864s93.3376 41.8304 93.3376 93.2864z" fill="#2c2c2c" p-id="1876"></path><path d="M928.256256 241.664L530.944256 5.2736a36.9152 36.9152 0 0 0-37.888 0L95.744256 241.7152a39.3216 39.3216 0 0 0-18.944 33.792v472.9344c0 13.9776 7.2192 26.88 18.944 33.8432l397.312 236.4928a37.0176 37.0176 0 0 0 37.888 0l397.312-236.4928a39.3216 39.3216 0 0 0 18.944-33.792V275.5072a39.3216 39.3216 0 0 0-18.944-33.8432z m-56.832 484.2496L512.000256 939.8272l-359.424-213.9136V298.0864L512.000256 84.1728l359.424 213.9136v427.8272z" fill="#2c2c2c" p-id="1877"></path></svg>