<?xml version="1.0" encoding="utf-8"?>
<!-- Generator: Adobe Illustrator 23.0.0, SVG Export Plug-In . SVG Version: 6.00 Build 0)  -->
<svg version="1.1" id="图层_1" xmlns="http://www.w3.org/2000/svg" xmlns:xlink="http://www.w3.org/1999/xlink" x="0px" y="0px"
	 viewBox="0 0 24 24" style="enable-background:new 0 0 24 24;" xml:space="preserve">
<style type="text/css">
	.st0{fill:#FFDE3A;}
</style>
<path d="M15.8,2.4c0-0.7,0.6-1.2,1.2-1.2c0.7,0,1.2,0.5,1.2,1.2v2c0,0.3-0.1,0.6-0.3,0.8c-0.2,0.3-0.5,0.4-0.9,0.4
	c-0.7,0-1.2-0.5-1.2-1.2L15.8,2.4C15.8,2.4,15.8,2.4,15.8,2.4z M10.7,2.4c0-0.7,0.6-1.2,1.2-1.2c0.7,0,1.2,0.5,1.2,1.2v2
	c0,0.7-0.6,1.2-1.2,1.2c-0.7,0-1.2-0.5-1.2-1.2C10.7,4.4,10.7,2.4,10.7,2.4z M5.7,2.4c0-0.7,0.6-1.2,1.2-1.2s1.2,0.5,1.2,1.2v2
	c0,0.7-0.6,1.2-1.2,1.2S5.7,5,5.7,4.4C5.7,4.4,5.7,2.4,5.7,2.4z"/>
<path d="M20.8,3.2h-1.9v1.2c0,1-0.8,1.8-1.8,1.8c-1,0-1.8-0.8-1.8-1.8V3.2h-1.5v1.2c0,1-0.8,1.8-1.8,1.8s-1.8-0.8-1.8-1.8V3.2H8.7
	v1.2c0,1-0.8,1.8-1.8,1.8c-1,0-1.8-0.8-1.8-1.8V3.2H3.2C2.6,3.2,2,3.7,2,4.4v17.1c0,0.7,0.6,1.2,1.2,1.2h17.5c0.7,0,1.2-0.5,1.2-1.2
	H22V4.4C22,3.7,21.4,3.2,20.8,3.2z M18,19.5H5.9c-0.7,0-1.2-0.5-1.2-1.2c0-0.7,0.6-1.2,1.2-1.2H18c0.3,0,0.6,0.1,0.9,0.4
	c0.2,0.2,0.3,0.5,0.3,0.8C19.2,18.9,18.7,19.5,18,19.5z M18,15.1H5.9c-0.7,0-1.2-0.5-1.2-1.2s0.6-1.2,1.2-1.2H18
	c0.3,0,0.6,0.1,0.9,0.4c0.2,0.2,0.3,0.5,0.3,0.8C19.2,14.5,18.7,15.1,18,15.1z M18,10.7H5.9c-0.7,0-1.2-0.5-1.2-1.2
	c0-0.7,0.6-1.2,1.2-1.2H18c0.3,0,0.6,0.1,0.9,0.4c0.2,0.2,0.3,0.5,0.3,0.9C19.2,10.2,18.7,10.7,18,10.7z"/>
<path class="st0" d="M19.2,18.3c0,0.6-0.6,1.2-1.2,1.2H5.9c-0.7,0-1.2-0.5-1.2-1.2c0-0.7,0.6-1.2,1.2-1.2H18c0.3,0,0.6,0.1,0.9,0.4
	C19.1,17.7,19.2,18,19.2,18.3z"/>
<path class="st0" d="M19.2,13.9c0,0.6-0.6,1.2-1.2,1.2H5.9c-0.7,0-1.2-0.5-1.2-1.2s0.6-1.2,1.2-1.2H18c0.3,0,0.6,0.1,0.9,0.4
	C19.1,13.3,19.2,13.6,19.2,13.9z"/>
<path class="st0" d="M19.2,9.5c0,0.6-0.6,1.2-1.2,1.2H5.9c-0.7,0-1.2-0.5-1.2-1.2c0-0.7,0.6-1.2,1.2-1.2H18c0.3,0,0.6,0.1,0.9,0.4
	C19.1,8.9,19.2,9.2,19.2,9.5z"/>
</svg>
