<?xml version="1.0" standalone="no"?><!DOCTYPE svg PUBLIC "-//W3C//DTD SVG 1.1//EN" "http://www.w3.org/Graphics/SVG/1.1/DTD/svg11.dtd"><svg t="1588229502460" class="icon" viewBox="0 0 1037 1024" version="1.1" xmlns="http://www.w3.org/2000/svg" p-id="9603" xmlns:xlink="http://www.w3.org/1999/xlink" width="24.3046875" height="24"><defs><style type="text/css"></style></defs><path d="M919.552 696.32c-16.896 0-30.72 13.824-30.72 30.72v111.104c0 16.896-13.824 30.72-30.72 30.72H143.36c-16.896 0-30.72-13.824-30.72-30.72V185.856c0-16.896 13.824-30.72 30.72-30.72h714.752c16.896 0 30.72 13.824 30.72 30.72V312.32c0 16.896 13.824 30.72 30.72 30.72s30.72-13.824 30.72-30.72V185.856c0-50.688-41.472-92.16-92.16-92.16H143.36c-50.688 0-92.16 41.472-92.16 92.16v652.288c0 50.688 41.472 92.16 92.16 92.16h714.752c50.688 0 92.16-41.472 92.16-92.16V727.04c0-16.896-13.824-30.72-30.72-30.72z" fill="#333333" p-id="9604"></path><path d="M957.44 397.824H486.4c-33.792 0-61.44 27.648-61.44 61.44V599.04c0 33.792 27.648 61.44 61.44 61.44h471.04c33.792 0 61.44-27.648 61.44-61.44V459.264c0-33.792-27.648-61.44-61.44-61.44z m0 201.216H486.4V459.264h471.04V599.04z" fill="#333333" p-id="9605"></path><path d="M846.773 548.424a31.232 31.232 0 1 0 44.168-44.17 31.232 31.232 0 1 0-44.168 44.17z" fill="#333333" p-id="9606"></path></svg>